<?xml version="1.0" encoding="utf-8"?>
<!-- Generator: Adobe Illustrator 16.0.4, SVG Export Plug-In . SVG Version: 6.00 Build 0)  -->
<!DOCTYPE svg PUBLIC "-//W3C//DTD SVG 1.1//EN" "http://www.w3.org/Graphics/SVG/1.1/DTD/svg11.dtd">
<svg version="1.1" id="Layer_1" xmlns="http://www.w3.org/2000/svg" xmlns:xlink="http://www.w3.org/1999/xlink" x="0px" y="0px"
	 width="256px" height="256px" viewBox="0 0 256 256" enable-background="new 0 0 256 256" xml:space="preserve">
<g>
	<g>
		<path fill="#8EC3E9" d="M211.32,104.816c2.429,1.215,4.443,1.93,6.188,2.684l0.063,0.027c3.3,1.431,5.641,3.022,8.014,8.451
			c3.316,7.599,1.609,23.646,4.963,41.224c4.355,1.014,7.26,6.735,6.986,9.692c-0.271,2.955-0.529,2.576-1.151,3.67l19.412,46.756
			l-25.983,5.802l-4.189-48.422c-3.936-1.298-6.527-5.974-6.205-9.474s1.656-5.02,3.684-6.504
			c-3.274-17.188-1.465-32.812-4.479-39.717c-2.627-6.021-12.082-8.858-19.119-11.668c-24.521-9.788-48.981-19.101-73.726-27.145
			c-7.696-2.502-1.123-13.811,12.01-7.987L211.32,104.816z"/>
		<path fill="#3B4652" d="M128.457,33.021l127.256,41.842l0.346,5.693l-37.404,21.009c-26.543-10.813-52.963-21.929-79.627-32.44
			c-24.907-9.82-27.088,9.078-19.631,12.322l72.997,31.758l-63.588,28.184c-0.814,0.36-1.668,0.385-2.473-0.003L-0.059,80.554
			l0.345-5.688l126.391-41.843C127.278,32.823,127.851,32.837,128.457,33.021L128.457,33.021z M47.813,116.506l-3.924,59.151
			c-0.032,0.498,0.169,0.959,0.587,1.28c0.418,0.322,0.952,0.42,1.456,0.295c27.962-6.981,58.518,7.019,80.661,37.726
			c0.408,0.565,1.54,0.565,1.947,0c22.142-30.709,52.698-44.707,80.661-37.726c0.503,0.125,1.037,0.027,1.455-0.295
			c0.419-0.321,0.619-0.774,0.588-1.28l-3.908-58.946l-74.218,32.895c-3.571,1.582-7.557,1.578-11.125-0.015L47.813,116.506z"/>
	</g>
</g>
</svg>
